<?xml version="1.0" encoding="iso-8859-1"?>
<svg  version="1.1" id="Capa_1" xmlns="http://www.w3.org/2000/svg" xmlns:xlink="http://www.w3.org/1999/xlink"
	 viewBox="0 0 55.668 55.668" xml:space="preserve">
<g>
	<g>
		<path  d="M27.833,0C12.487,0,0,12.486,0,27.834s12.487,27.834,27.833,27.834
			c15.349,0,27.834-12.486,27.834-27.834S43.182,0,27.833,0z M27.833,51.957c-13.301,0-24.122-10.821-24.122-24.123
			S14.533,3.711,27.833,3.711c13.303,0,24.123,10.821,24.123,24.123S41.137,51.957,27.833,51.957z"/>
		<path  d="M41.618,25.819H29.689V10.046c0-1.025-0.831-1.856-1.855-1.856c-1.023,0-1.854,0.832-1.854,1.856
			v19.483h15.638c1.024,0,1.855-0.83,1.854-1.855C43.472,26.65,42.64,25.819,41.618,25.819z"/>
	</g>
</g>
</svg>