<svg xmlns="http://www.w3.org/2000/svg" width="295" height="39" viewBox="0 0 295 39" fill="none"><path d="M119.875 37.1064C122.251 38.0227 124.957 38.4809 127.664 38.4809C139.084 38.4809 148.457 29.9722 148.457 19.5C148.457 9.02778 139.15 0.519104 127.664 0.519104C122.911 0.519104 118.488 2.02449 114.99 4.51164C111.491 2.02449 106.541 0.519104 100.93 0.519104C96.309 0.519104 91.8863 1.56633 88.4538 3.46442C85.0213 1.56633 80.5986 0.519104 75.9778 0.519104C73.8655 0.519104 71.8852 0.715458 70.0369 1.10817C69.9049 1.10817 69.7729 1.17362 69.7069 1.17362H57.0329V22.4453C57.0329 25.0634 54.3265 27.1578 51.092 27.1578C47.8575 27.1578 45.151 25.0634 45.151 22.4453V12.3658V1.23907H32.081H0V12.3658H11.4198V37.1064H26.2061V12.3658H32.081V25.6524C32.081 32.3285 40.5963 37.8264 51.092 37.8264C53.2043 37.8264 55.1846 37.63 57.0329 37.2373C57.1649 37.2373 57.2969 37.1719 57.429 37.1719H70.1029V15.8347C70.1029 13.2167 72.8093 11.1222 76.0439 11.1222C79.3444 11.1222 81.9848 13.2167 81.9848 15.8347V37.1064H94.9888V15.8347C94.9888 13.2167 97.6952 11.1222 100.93 11.1222C104.23 11.1222 106.871 13.2167 106.871 15.8347V37.1064H119.875ZM43.1047 3.20261V10.4023H34.0613V3.20261H43.1047ZM24.2258 10.4023V35.1429H13.4001V10.4023H1.98031V3.20261H32.081V10.4023H24.2258ZM57.0329 35.1429C55.1846 35.5356 53.1383 35.7974 51.092 35.7974C41.7185 35.7974 34.1273 31.2158 34.1273 25.587V12.3004H43.1707V22.4453C43.1707 26.1106 46.7353 29.1214 51.158 29.1214C53.5343 29.1214 55.6467 28.2705 57.0989 26.8306V35.1429H57.0329ZM64.162 3.20261C61.6536 4.57709 58.8812 7.45695 59.0132 7.2606V3.20261H64.162ZM68.0566 3.66077V15.8347V18.3219V25.6524C68.0566 29.5795 64.36 32.9175 59.0132 34.6847V22.5108V19.3036V12.7585C59.0132 8.76598 62.7098 5.42796 68.0566 3.66077ZM68.0566 31.0194V35.0774H62.9078C65.0862 34.0302 66.8024 32.6557 68.0566 31.0194ZM117.96 12.6931V34.0302C112.548 31.0194 108.917 25.6524 108.917 19.5C108.917 14.5257 111.293 10.075 114.99 6.99879C116.838 8.56962 117.96 10.5332 117.96 12.6931ZM116.508 5.75521C116.244 5.55886 116.046 5.36251 115.782 5.1007C116.046 5.29705 116.31 5.55886 116.508 5.75521ZM108.191 13.0203C106.937 10.7295 104.164 9.15869 100.996 9.15869C96.6391 9.15869 93.0085 12.1694 93.0085 15.8347V35.1429H83.9651V15.8347C83.9651 12.1694 80.4005 9.15869 75.9778 9.15869C73.6015 9.15869 71.4891 10.0096 70.0369 11.4495V3.13716C71.8852 2.74445 73.9315 2.48265 75.9778 2.48265C80.4665 2.48265 84.6912 3.52987 87.9257 5.49341L88.4538 5.75521L88.9819 5.42796C92.2164 3.52987 96.441 2.41719 100.93 2.41719C105.814 2.41719 110.237 3.66077 113.34 5.68976C113.472 5.55886 113.604 5.42796 113.736 5.36251C111.293 7.45695 109.379 10.075 108.191 13.0203ZM114.99 4.51164C114.726 4.70799 114.396 4.90435 114.132 5.16615C114.396 4.90435 114.66 4.70799 114.99 4.51164ZM115.914 35.1429H108.917V27.616C110.501 30.6267 112.944 33.2448 115.914 35.1429ZM127.664 36.5174C124.891 36.5174 122.251 35.9938 119.941 35.012V24.9325C121.723 27.0924 124.561 28.4668 127.664 28.4668C133.011 28.4668 137.433 24.4743 137.433 19.5C137.433 14.5912 133.077 10.5332 127.664 10.5332C124.495 10.5332 121.723 11.9076 119.941 14.0675V12.6931C119.941 10.1405 118.687 7.78421 116.574 5.82067C119.677 3.72622 123.505 2.5481 127.664 2.5481C138.028 2.5481 146.411 10.2059 146.411 19.5655C146.411 28.925 138.028 36.5174 127.664 36.5174ZM119.941 19.5C119.941 15.6384 123.439 12.4967 127.664 12.4967C131.955 12.4967 135.387 15.6384 135.387 19.5C135.387 23.3616 131.889 26.5033 127.664 26.5033C123.439 26.5033 119.941 23.3616 119.941 19.5Z" fill="#F7F6F4"/><path d="M163.64 1.23906V35.7974H180.472V37.1064H162.121V1.23906H163.64Z" fill="#F7F6F4"/><path d="M207.206 1.23906L221.134 37.1064H219.616L215.062 25.1943H198.229L193.74 37.1064H192.222L205.952 1.23906H207.206ZM206.48 3.00625L198.691 23.8198H214.467L206.48 3.00625Z" fill="#F7F6F4"/><path d="M244.502 1.23906C250.971 1.23906 256.318 3.72621 256.318 10.4023C256.318 15.0493 253.612 17.7328 249.453 18.9109C254.668 19.5654 258.496 22.249 258.496 27.7469C258.496 34.0956 253.347 37.1719 246.416 37.1719H237.373V1.23906H244.502ZM254.8 10.3368C254.8 4.90434 250.443 2.54809 244.436 2.54809H238.891V18.4528H244.502C250.707 18.3873 254.8 15.6384 254.8 10.3368ZM257.044 27.616C257.044 22.3144 252.489 19.6963 246.416 19.6963H238.891V35.7974H246.614C252.951 35.7974 257.044 32.7866 257.044 27.616Z" fill="#F7F6F4"/><path d="M274.075 33.7029C276.319 34.9465 279.356 36.2556 283.58 36.2556C289.125 36.2556 293.548 32.9175 293.548 28.3359C293.548 17.0783 274.735 22.4453 274.735 10.3368C274.735 4.57709 279.025 0.715454 285.428 0.715454C288.795 0.715454 292.029 1.76268 294.076 3.20261L293.482 4.38073C291.501 3.0717 288.531 2.08993 285.428 2.08993C280.148 2.08993 276.187 5.16615 276.187 10.2059C276.187 21.2017 295 15.7038 295 28.205C295 33.7029 289.785 37.63 283.58 37.63C279.554 37.63 275.857 36.4519 273.613 34.9465L274.075 33.7029Z" fill="#F7F6F4"/></svg>